<svg xmlns="http://www.w3.org/2000/svg" viewBox="0 0 280 280" fill="currentColor"><path fill-rule="evenodd" clip-rule="evenodd" d="M140 0C217.32 0 280 62.6801 280 140C280 217.32 217.32 280 140 280C62.6801 280 1.9021e-06 217.32 0 140C0 62.6801 62.6801 1.47276e-06 140 0ZM185.037 71.0938C167.923 71.0938 159.816 92.6963 140 92.6963C120.184 92.6963 112.077 71.0938 94.9629 71.0938C77.8491 71.0939 63.4375 85.0455 63.4375 104.848V199.358C63.4375 201.746 64.387 204.035 66.0762 205.723C67.7654 207.411 70.0564 208.359 72.4453 208.359H94.9629C97.3518 208.359 99.6428 207.411 101.332 205.723C103.021 204.035 103.971 201.746 103.971 199.358V158.854C103.971 149.305 107.767 140.147 114.523 133.395C121.28 126.643 130.445 122.85 140 122.85C149.555 122.85 158.72 126.643 165.477 133.395C172.233 140.147 176.029 149.305 176.029 158.854V199.358C176.029 201.746 176.979 204.035 178.668 205.723C180.357 207.411 182.648 208.359 185.037 208.359H207.555C209.944 208.359 212.235 207.411 213.924 205.723C215.613 204.035 216.562 201.746 216.562 199.358V104.848C216.562 85.0455 202.151 71.0939 185.037 71.0938Z"/></svg>
